<svg width="90" height="90" viewBox="0 0 90 90" fill="none" xmlns="http://www.w3.org/2000/svg">
<circle cx="44.7962" cy="44.7961" r="35.3633" transform="rotate(71.3989 44.7962 44.7961)" fill="#C6B8FB" fill-opacity="0.4"/>
<circle cx="44.7946" cy="44.7965" r="26.5225" transform="rotate(71.3989 44.7946 44.7965)" fill="#40DE9E" fill-opacity="0.5"/>
<path d="M53.62 38.45C52.57 33.83 48.54 31.75 45 31.75C45 31.75 45 31.75 44.99 31.75C41.46 31.75 37.42 33.82 36.37 38.44C35.2 43.6 38.36 47.97 41.22 50.72C42.28 51.74 43.64 52.25 45 52.25C46.36 52.25 47.72 51.74 48.77 50.72C51.63 47.97 54.79 43.61 53.62 38.45ZM45 43.46C43.26 43.46 41.85 42.05 41.85 40.31C41.85 38.57 43.26 37.16 45 37.16C46.74 37.16 48.15 38.57 48.15 40.31C48.15 42.05 46.74 43.46 45 43.46Z" fill="white"/>
</svg>
