<svg width="680" height="116" viewBox="0 0 680 116" fill="none" xmlns="http://www.w3.org/2000/svg">
<path d="M109.9 13.6474C107.12 8.86012 102.144 6 96.5842 6H31.757C26.1973 6 21.2213 8.86012 18.4414 13.6474C15.6616 18.4347 15.6616 24.1549 18.4414 28.9575L28.8389 46.8829L2.08488 93.0578C-0.694961 97.8451 -0.694961 103.565 2.08488 108.353C4.86472 113.14 9.82544 116 15.3851 116H80.2737C85.818 116 90.7941 113.14 93.5739 108.353C96.3538 103.565 96.3538 97.8451 93.5739 93.0578L83.1611 75.1018L109.915 28.9575C112.695 24.1702 112.695 18.4499 109.915 13.6474H109.9ZM86.9085 96.8662C88.2907 99.2522 88.2907 102.112 86.9085 104.514C85.5262 106.9 83.0382 108.337 80.2583 108.337H15.3698C12.5899 108.337 10.1172 106.915 8.71964 104.514C7.3374 102.128 7.3374 99.2675 8.71964 96.8662L33.2621 54.5303L50.8473 84.8598C53.6272 89.6471 58.6032 92.5072 64.1629 92.5072C69.7226 92.5072 74.6987 89.6471 77.4785 84.8598L78.7072 82.7339L86.9085 96.8662ZM37.716 46.8829L41.1716 40.918C42.5539 38.532 45.0419 37.0943 47.8217 37.0943C50.6016 37.0943 53.0743 38.5167 54.4719 40.918L74.284 75.1018L70.8437 81.0514C69.4461 83.4527 66.9581 84.8751 64.1783 84.8751C61.3984 84.8751 58.9104 83.4374 57.5128 81.0514L37.716 46.8982V46.8829ZM103.25 25.1338L78.7225 67.4544L61.122 37.0943C58.3421 32.307 53.3814 29.4469 47.8217 29.4469C42.262 29.4469 37.3013 32.307 34.5215 37.0943L33.2775 39.2355L25.0915 25.1338C23.6939 22.7325 23.6939 19.8724 25.0915 17.4711C26.4738 15.0698 28.9772 13.6474 31.757 13.6474H96.5842C99.364 13.6474 101.852 15.0851 103.25 17.4711C104.647 19.8724 104.647 22.7325 103.25 25.1338Z" fill="white"/>
<path d="M214.692 6.46802V115.617H192.527V70.4751H153.971V115.617H131.807V6.46802H153.971V48.5248H192.527V6.46802H214.692Z" fill="white"/>
<path d="M453.617 6.46802L412.923 115.617H387.374L345.718 6.46802H375.258L400.345 79.5886L424.968 6.46802H453.653H453.617Z" fill="white"/>
<path d="M233.435 115.617L274.129 6.46802H299.679L341.335 115.617H311.794L286.708 42.4964L262.085 115.617H233.4H233.435Z" fill="white"/>
<path d="M564.118 57.5674C564.118 60.4397 563.94 63.3475 563.584 66.2198H486.08C488.503 81.1134 497.661 89.3049 511.095 89.3049C520.716 89.3049 528.627 84.4468 532.832 76.6454H561.945C554.497 100.44 534.899 115.617 511.131 115.617C480.878 115.617 458 90.6525 458 57.9574C458 25.2624 480.735 0.297852 511.131 0.297852C541.526 0.297852 564.154 26.1489 564.154 57.5674H564.118ZM486.793 46.078H536.431C532.511 32.7447 523.531 25.5106 511.095 25.5106C498.659 25.5106 490 33.1702 486.793 46.078Z" fill="white"/>
<path d="M680 49.4468V115.582H652.312V54.1985C652.312 37.7092 646.433 29.7305 634.46 29.7305C620.171 29.7305 611.476 40.617 611.476 58.2056V115.582H583.788V6.43259H602.781L608.162 19.9078C615.93 10.0851 628.153 3.80847 642.085 3.80847C665.426 3.80847 680 21.7517 680 49.4113V49.4468Z" fill="white"/>
</svg>
